<?xml version="1.0" encoding="UTF-8"?>
<svg width="120px" height="120px" viewBox="0 0 120 120" version="1.1" xmlns="http://www.w3.org/2000/svg" xmlns:xlink="http://www.w3.org/1999/xlink">
    <title>tanya logo</title>
    <g id="Page-1" stroke="none" stroke-width="1" fill="none" fill-rule="evenodd">
        <g id="1-NBT---homepage---narrow-margin" transform="translate(-836.000000, -19.000000)">
            <g id="tanya-logo" transform="translate(839.000000, 22.000000)">
                <circle id="Oval" stroke="#FFFFFF" stroke-width="3" fill="#5C1C4F" cx="57" cy="57" r="58.5"></circle>
                <g id="Group-15" transform="translate(13.000000, 31.000000)">
                    <path d="M69.3301671,31.1020615 L69.6900901,31.4583745 L70.0500131,31.4583745 C73.5592623,30.0776614 75.9437521,27.1826179 76.528627,23.5749483 L75.808781,23.5749483 C73.28932,23.5749483 71.1297821,26.1136788 69.3301671,31.1020615 M78.7331553,33.5962528 C77.6983767,33.5962528 76.4836366,33.1063224 75.088935,32.1710006 L74.729012,32.1710006 C72.4794933,33.8189484 70.5898976,34.6651919 68.9252537,34.6651919 C66.9906676,34.6651919 65.9108986,33.4626354 65.6859467,31.1020615 C68.835273,23.9758005 72.4345029,20.3681309 76.528627,20.3681309 L78.7331553,21.080757 L80.8926933,20.7244439 L81.6125393,20.7244439 C81.9724623,20.7244439 82.3323853,21.2143744 82.6923083,22.1496961 C82.6923083,23.3522527 81.1176452,25.846444 77.968319,29.6322701 L78.328242,29.9885832 C80.2178377,29.9885832 80.8027126,29.8104267 82.6023275,29.2759571 C83.0972217,29.1423397 83.3671639,29.3650354 83.4571447,29.8995049 C83.8170677,32.5718528 80.6227511,33.2399397 78.7331553,33.5962528 Z M54.7082954,52.035453 C54.7082954,50.2538878 55.4731317,45.3100442 57.4077178,37.8274702 C51.0190847,41.2569833 49.4444216,46.3789834 54.7082954,52.035453 Z M66.9456772,15.4688265 C67.8004943,15.7806004 68.2503981,16.0923743 68.2503981,16.4486874 L68.2503981,16.7604613 C64.2462548,26.3809136 62.2666783,31.7256093 62.2666783,32.7054702 C66.4507831,30.4339745 67.4855617,29.8104267 68.2054077,30.7457484 L67.7105136,32.304618 L60.9619574,36.4467572 C58.5774676,43.7957138 57.3627275,49.4076443 57.3627275,53.3270878 L57.3627275,54.3069487 L57.4976986,55.5540444 C57.4527082,57.3801487 56.1929777,57.2910705 54.8432665,56.3112096 C49.8493349,50.7883573 48.2746718,48.6950182 48.2746718,44.9537312 C48.2746718,40.9452094 51.7389307,37.4266181 58.6674483,34.3088789 L58.9823809,32.7054702 C58.4874868,33.1508615 58.3525157,33.1063224 57.8126312,33.0172441 C52.6837285,32.1264615 55.743074,22.3278527 57.3627275,22.1496961 C58.1275638,22.0606179 58.2175446,22.0160787 58.6674483,22.773244 C58.1275638,24.822044 56.4179296,27.5834701 58.6674483,29.8104267 C60.9619574,29.6322701 64.0662933,15.4688265 66.9456772,15.4688265 Z M43.1007788,21.2589135 C44.1805477,20.1899744 45.1253456,19.6555048 45.8451916,19.6555048 L46.1601242,19.6555048 C46.7449991,19.6555048 47.0599317,20.056357 47.0599317,20.8135222 L45.0353649,25.7128266 C48.1846911,22.2387744 50.344229,20.5462874 51.4689884,20.5462874 C52.2338248,20.8580613 52.6387381,21.1252961 52.6387381,21.43707 L52.6387381,22.0160787 L51.4689884,28.0734006 L51.4689884,29.231418 C51.3340173,33.9525658 54.3483724,32.7054702 56.6428815,30.5230528 C57.0927852,31.1466006 58.5774676,30.9239049 58.3075253,31.5919919 C56.822843,35.3332789 48.3646526,37.5602354 48.4996237,28.6524093 L49.0844986,25.2228962 C43.5056921,31.0575223 40.2213948,34.0416441 39.1416258,34.0416441 C38.5567509,34.0861832 38.2868087,33.7744093 38.2868087,33.1508615 C38.2868087,32.3936963 38.9166739,31.0575223 40.2663852,29.1423397 C38.7817028,31.0129832 37.4319916,32.3936963 36.1722611,33.1954006 C34.6425883,33.1063224 35.5423958,30.7457484 36.1272707,30.4339745 C36.8021263,30.0776614 39.4565584,26.6481484 43.1007788,21.2589135 Z M24.6997156,31.1020615 L25.0596386,31.4583745 L25.4195616,31.4583745 C28.9288108,30.0776614 31.3133006,27.2271571 31.9431659,23.5749483 L31.2233199,23.5749483 C28.6588685,23.5749483 26.4993306,26.1136788 24.6997156,31.1020615 Z M34.1027039,33.5962528 C33.0679252,33.5962528 31.8531851,33.1063224 30.4584835,32.1710006 L30.1435509,32.1710006 C27.8940322,33.8189484 26.0044364,34.6651919 24.3397926,34.6651919 C16.7364193,34.6651919 25.2845905,20.3681309 31.9431659,20.3681309 L34.1476942,21.080757 L36.3072322,20.7244439 L37.0270782,20.7244439 C37.3870012,20.7244439 37.7469242,21.2143744 38.1068472,22.1496961 C38.1068472,23.3522527 36.5321841,25.846444 33.4278482,29.6322701 C33.6528001,31.1466006 35.9922996,30.7457484 37.8369049,29.6322701 C38.3317991,29.4986527 38.8266932,29.3650354 38.9166739,29.9440441 C39.0066547,30.5230528 37.5219723,30.6566702 36.8021263,31.7256093 C36.3522226,31.9928441 36.6671552,32.7945484 36.1722611,33.1954006 C35.8123381,33.5071745 34.8225498,33.5517137 34.1027039,33.5962528 Z M39.2765969,0 C43.1457691,0 40.3113755,5.43413679 39.1416258,6.92909804 C37.7919146,8.61695752 37.7919146,6.65498879 37.7469242,5.49759943 C37.7019338,4.77423109 39.5465392,2.55590149 37.4769819,3.03814705 C31.0883488,6.65498879 29.3787145,6.94433613 24.1148407,10.4165042 C22.4252022,16.9220189 21.1579733,21.5947215 20.3131541,24.434612 C19.4683348,27.2745026 18.2011059,31.5343384 16.5114674,37.2141195 C16.4664771,37.5516914 16.1515444,38.5644071 16.3315059,38.9502035 C17.3662845,39.5288982 20.42563,35.3333618 19.7957648,38.1303861 C18.9409477,41.3132068 16.9163808,42.3259225 14.8018332,42.3259225 C13.9020257,42.3259225 13.0022182,40.9756349 13.1821797,40.0593683 C15.3867081,29.3535168 19.8857455,16.0587773 20.8755338,13.261753 L21.4154183,11.7667918 C14.5768813,16.1070018 8.77312302,18.7111279 3.01435509,25.0767693 C2.56445135,26.4270569 3.19431659,26.4270569 3.59922996,27.4879972 C3.95915295,28.597162 3.55423958,28.9829584 2.56445135,28.9347339 C0.944797864,28.7418356 0,27.7291199 0,26.0412605 C0,22.5208679 6.97350804,16.5892474 21.1904664,8.82509383 C36.3522226,0.626919234 36.8021263,0 39.2765969,0 Z" id="Shape" fill="#FFFFFF" fill-rule="nonzero"></path>
                    <g id="Group-17" transform="translate(78.659749, 10.289618) rotate(19.000000) translate(-78.659749, -10.289618) translate(70.880176, 3.125469)" fill="#FFC200">
                        <path d="M5.08596678,14.3282973 C6.99309306,12.2640511 8.90021934,9.71409985 7.68659353,6.35464032 C6.86306172,4.12849243 4.73921655,1.09283623 2.83209027,-3.00104762e-14 C1.315058,1.49759039 -0.332005604,6.11178782 0.0580884076,8.54031278 C0.491526198,11.2521657 2.78874649,13.033084 5.08596678,14.3282973" id="Path"></path>
                        <path d="M12.5625695,13.6227014 C13.7535164,12.774093 15.2133869,11.0364664 15.5591457,9.74334889 C14.445034,9.09679014 11.4868755,8.93515045 10.1422579,9.5817092 C8.60555218,10.3090878 7.91403459,11.9254846 7.49144051,13.4610617 C8.98972862,14.2288502 10.7569402,14.8754089 12.5625695,13.6227014 Z" id="Path"></path>
                    </g>
                </g>
            </g>
        </g>
    </g>
</svg>